<svg width="2667" height="815" fill="none" xmlns="http://www.w3.org/2000/svg"><g clip-path="url(#clip0)"><path d="M1265.34 743.659a2.25 2.25 0 0 0-3.12-.06l-23.07 21.19 5.06 5.061 21.19-23.071c.82-.888.79-2.266-.06-3.12z" fill="#94D82D"/><path d="M1318.66 748.659a2.25 2.25 0 0 1 3.12-.06l23.03 21.156h-9.7l-16.51-17.975c-.82-.888-.8-2.266.06-3.121z" fill="#C92A2A"/><path d="M1374.76 756.499c-3.65 0-6.75-2.953-6.75-6.75 0-3.656 3.1-6.75 6.75-6.75 3.8 0 6.75 3.094 6.75 6.75 0 3.797-2.95 6.75-6.75 6.75zm-13.22 21.094l3.24-1.688 1.4-4.218c2.11-6.188 7.88-10.547 14.35-10.688 5.06 0 7.87 1.547 13.08 3.656 3.09 1.125 5.62 3.516 7.03 6.469l.98 1.828c1.13 2.25.14 4.922-1.97 6.047-2.25 1.125-4.92.281-6.04-1.969l-.99-1.968c-.42-.985-1.26-1.688-2.25-2.11l-3.8-1.547 2.11 8.579c.85 2.953 0 6.046-2.11 8.296l-8.29 9.141a7.7 7.7 0 0 0-2.11 3.938l-2.67 10.265c-.57 2.391-2.96 3.938-5.35 3.235-2.53-.563-3.94-2.954-3.37-5.344l3.09-12.516a9.725 9.725 0 0 1 2.11-3.937l6.47-7.032-2.39-9.562-.85 2.25c-.7 2.25-2.39 4.078-4.5 5.203l-3.23 1.688c-2.11 1.125-4.78.14-5.91-1.969-1.12-2.25-.28-5.063 1.97-6.047zm32.21 19.687c.42 1.125 1.12 2.25 1.96 3.094l7.04 7.031c1.82 1.688 1.82 4.641 0 6.329-1.69 1.828-4.64 1.828-6.33 0l-8.44-8.297c-.84-.844-1.41-1.969-1.97-3.094l-1.83-4.781c7.74-8.438 5.35-5.766 6.61-7.453l2.96 7.171z" fill="#024E37"/><path d="M1357.17 778.68l7.95 7.957a3 3 0 0 1 0 4.24l-10.08-10.076 2.13-2.121zm-3.19 3.182l10.08 10.077-2.12 2.123-10.08-10.078 2.12-2.122zm-16.95-9.856h12.84c.4 0 .78.158 1.06.439l5.18 5.174-8.49 8.487-11.65-11.534c-.95-.943-.28-2.566 1.06-2.566zm23.85 23.118c-1.17 1.167-3.08 1.168-4.24.001l-7.96-7.958 2.12-2.122 10.08 10.079z" fill="#024E37"/><path opacity=".4" d="M2262.19 517.21h-18.95v-22.581h-28.22v-22.581h16.93v-10.347C2216.71 448.808 2197.03 441 2175.5 441c-48.33 0-87.5 39.175-87.5 87.5 0 3.377.24 6.695.61 9.973 25.21 7.94 54.95 12.608 86.89 12.608 31.94 0 61.68-4.668 86.89-12.608.37-3.278.61-6.596.61-9.973 0-3.835-.33-7.586-.81-11.29zm-109.27 5.645c-15.59 0-28.23-12.638-28.23-28.226 0-15.589 12.64-28.226 28.23-28.226s28.23 12.637 28.23 28.226c0 15.588-12.64 28.226-28.23 28.226zm67.74 36.389c-14.38 1.975-29.46 3.127-45.16 3.127-30.82 0-59.53-4.044-84.43-11.197 10.01 37.313 43.96 64.826 84.43 64.826 27.32 0 51.7-12.528 67.74-32.139v-10.2h-22.58v-14.417z" fill="#087F5B"/><path d="M336.07 179.648l1.406-8.171-5.93-5.78c-1.07-1.039-.476-2.852.993-3.063l8.187-1.195 3.664-7.437c.664-1.344 2.562-1.328 3.218 0l3.664 7.437 8.187 1.195c1.469.211 2.063 2.024 1 3.063l-5.929 5.78 1.398 8.171c.25 1.477-1.296 2.578-2.601 1.891l-7.328-3.858-7.328 3.858c-1.297.696-2.851-.414-2.601-1.891zM347.952 378.955l-2.812 16.341c-.501 2.954 2.607 5.173 5.202 3.782l14.656-7.717 14.656 7.717c2.609 1.374 5.703-.828 5.202-3.782l-2.795-16.341 11.857-11.562c2.127-2.077.938-5.702-1.999-6.125l-16.374-2.39-7.329-14.874c-1.311-2.656-5.108-2.688-6.436 0l-7.329 14.874-16.374 2.39c-2.937.423-4.126 4.048-1.985 6.125l11.86 11.562zM2486.95 448.955l-2.81 16.341c-.5 2.954 2.61 5.173 5.2 3.782l14.66-7.717 14.65 7.717c2.61 1.374 5.71-.828 5.21-3.782l-2.8-16.341 11.86-11.562c2.12-2.077.94-5.702-2-6.125l-16.38-2.39-7.32-14.874c-1.32-2.656-5.11-2.688-6.44 0l-7.33 14.874-16.37 2.39c-2.94.423-4.13 4.048-1.99 6.125l11.86 11.562zM797.07 369.648l1.406-8.171-5.93-5.78c-1.07-1.039-.476-2.852.993-3.063l8.187-1.195 3.664-7.437c.664-1.344 2.562-1.328 3.218 0l3.664 7.437 8.187 1.195c1.469.211 2.063 2.024 1 3.063l-5.929 5.78 1.398 8.171c.25 1.477-1.296 2.578-2.601 1.891l-7.328-3.858-7.328 3.858c-1.297.696-2.851-.414-2.601-1.891zM223.476 454.477l-1.406 8.171c-.25 1.477 1.304 2.587 2.601 1.891l7.328-3.858 7.328 3.858c1.305.687 2.851-.414 2.601-1.891l-1.398-8.171 5.929-5.78c1.063-1.039.469-2.852-1-3.063l-8.187-1.195-3.664-7.437c-.656-1.328-2.554-1.344-3.218 0l-3.664 7.437-8.187 1.195c-1.469.211-2.063 2.024-.993 3.063l5.93 5.78zM1849.48 218.477l-1.41 8.171c-.25 1.477 1.3 2.587 2.6 1.891l7.33-3.858 7.33 3.858c1.3.687 2.85-.414 2.6-1.891l-1.4-8.171 5.93-5.78c1.06-1.039.47-2.852-1-3.063l-8.19-1.195-3.66-7.437c-.66-1.328-2.56-1.344-3.22 0l-3.66 7.437-8.19 1.195c-1.47.211-2.06 2.024-.99 3.063l5.93 5.78zM2404.07 296.648l1.41-8.171-5.93-5.78c-1.07-1.039-.48-2.852.99-3.063l8.19-1.195 3.66-7.437c.66-1.344 2.56-1.328 3.22 0l3.66 7.437 8.19 1.195c1.47.211 2.06 2.024 1 3.063l-5.93 5.78 1.4 8.171c.25 1.477-1.3 2.578-2.6 1.891l-7.33-3.858-7.33 3.858c-1.3.696-2.85-.414-2.6-1.891zM1842.48 578.477l-1.41 8.171c-.25 1.477 1.3 2.587 2.6 1.891l7.33-3.858 7.33 3.858c1.3.687 2.85-.414 2.6-1.891l-1.4-8.171 5.93-5.78c1.06-1.039.47-2.852-1-3.063l-8.19-1.195-3.66-7.437c-.66-1.328-2.56-1.344-3.22 0l-3.66 7.437-8.19 1.195c-1.47.211-2.06 2.024-.99 3.063l5.93 5.78zM2096.07 186.648l1.41-8.171-5.93-5.78c-1.07-1.039-.48-2.852.99-3.063l8.19-1.195 3.66-7.437c.66-1.344 2.56-1.328 3.22 0l3.66 7.437 8.19 1.195c1.47.211 2.06 2.024 1 3.063l-5.93 5.78 1.4 8.171c.25 1.477-1.3 2.578-2.6 1.891l-7.33-3.858-7.33 3.858c-1.3.696-2.85-.414-2.6-1.891zM1866.36 350.668a5.988 5.988 0 0 0 0 8.486 5.994 5.994 0 0 0 8.48 0 6.007 6.007 0 0 0 0-8.486 5.994 5.994 0 0 0-8.48 0z" fill="#49A5A0"/><path fill-rule="evenodd" clip-rule="evenodd" d="M1897.44 322.354c.78-.781.78-2.047 0-2.828l-4.64-4.637a2.001 2.001 0 0 0-2.26-.398l-30.65 14.279c-6.7 3.155-12.34 8.462-15.07 15.352-7.18 18.154 5.98 30.588 5.98 30.588s12.4 13.171 30.59 5.978c6.89-2.725 12.2-8.371 15.35-15.072l.92-1.969.62.063c1.8.178 3.57-.456 4.85-1.728l5.65-5.656a5.988 5.988 0 0 0 0-8.486 5.933 5.933 0 0 0-3-1.62l5.24-11.252c.35-.762.19-1.665-.4-2.259l-4.64-4.637a1.99 1.99 0 0 0-2.82 0l-12.73 12.728-5.72-5.718 12.73-12.728zm-38.15 46.699a2.002 2.002 0 0 1-2.83-2.829 2.002 2.002 0 0 1 2.83 2.829zm11.31 5.657a2.002 2.002 0 0 1-2.83-2.829 2.002 2.002 0 0 1 2.83 2.829zm-16.97-16.971a2.001 2.001 0 1 1 0-2.828c.78.781.78 2.047 0 2.828zm24.04 4.243c-3.9 3.899-10.24 3.899-14.14 0-3.9-3.899-3.9-10.243 0-14.142 3.9-3.899 10.24-3.899 14.14 0 3.9 3.899 3.9 10.243 0 14.142z" fill="#49A5A0"/><path d="M724.981 206.928a4 4 0 0 0-5.464-1.464l-19.919 11.5a3 3 0 0 0-1.098 4.098l1 1.732a3 3 0 0 0 4.098 1.098l6.738-3.89 9.548 2.708-1.108.781a4.78 4.78 0 0 0 4.759 8.242l1.23-.569-4.837 11.013-4.33 2.5a3 3 0 0 0-1.098 4.098l1 1.732a3 3 0 0 0 4.098 1.098l19.919-11.5a4 4 0 0 0-4-6.928l-7.604 4.39 4.45-9.914 2.368-1.095a28.043 28.043 0 0 1-3.482-4.773 28.056 28.056 0 0 1-2.393-5.403l-2.132 1.503-8.404-2.493 5.197-3a4 4 0 0 0 1.464-5.464zM753.497 204.321a4.005 4.005 0 0 0-1.464 5.464 4.005 4.005 0 0 0 5.464 1.464 4.006 4.006 0 0 0 1.465-5.464 4.006 4.006 0 0 0-5.465-1.464z" fill="#49A5A0"/><path fill-rule="evenodd" clip-rule="evenodd" d="M743.497 187c-11.479 6.627-15.412 21.306-8.784 32.785 6.627 11.479 21.305 15.412 32.784 8.784 11.48-6.627 15.412-21.305 8.785-32.784-6.627-11.479-21.305-15.412-32.785-8.785zm16 27.713c-3.82 2.205-8.722.892-10.928-2.928-2.205-3.821-.892-8.723 2.928-10.929 3.821-2.205 8.723-.892 10.929 2.929 2.205 3.82.892 8.722-2.929 10.928z" fill="#49A5A0"/><path d="M556.874 439.133a3.367 3.367 0 0 1-1.515-4.528l17.07-33.999a96.545 96.545 0 0 0 9.658 2.843 3.306 3.306 0 0 1-.333 1.222l-17.301 34.463a3.395 3.395 0 0 1-4.546 1.509l-3.033-1.51zM659.573 400.607l17.068 33.998a3.367 3.367 0 0 1-1.515 4.528l-3.032 1.51a3.396 3.396 0 0 1-4.547-1.509l-17.301-34.463a3.36 3.36 0 0 1-.333-1.222 96.587 96.587 0 0 0 9.66-2.842zM584.05 364.822c0-17.575 14.305-31.822 31.952-31.822 17.646 0 31.952 14.247 31.952 31.822 0 .386-.026.766-.052 1.147-.012.179-.025.358-.034.538-9.728 4.4-20.465 6.993-31.866 6.993s-22.139-2.593-31.866-6.993c-.01-.18-.022-.359-.034-.539-.026-.38-.052-.76-.052-1.146z" fill="#49A5A0"/><path fill-rule="evenodd" clip-rule="evenodd" d="M884.422 591.5l143.998 224c1.5 2.5 3 6 3 9 0 2-1 5.5-2 7.5-3 5-8.5 8-14 8H726.922c-5 0-11.5-3.5-14-8-.921-1.842-1.842-4.957-1.982-7h-59.159c-8.156 0-12.375-9.562-7.031-15.75L670.063 780h-10.125c-7.313 0-11.25-8.156-6.469-13.5l26.719-31.5h-12.657c-6.187 0-9.281-6.187-5.625-10.406l37.969-41.063c2.813-3.093 8.156-3.093 10.969 0l37.969 41.063c3.656 4.219.562 10.406-5.625 10.406h-12.375l19.83 23.379L857.922 591.5c2.5-4.5 8-7.5 13.5-7.5 5 0 10.5 3 13 7.5zm29.5 104.5l-42.5-66-51.5 79 19.5 19 32-32h42.5zM2477 591.5l144 224c1.5 2.5 3 6 3 9 0 2-1 5.5-2 7.5-3 5-8.5 8-14 8h-288.5c-5 0-11.5-3.5-14-8-1-2-2-5.5-2-7.5 0-3 1.5-6.5 3-9l144-224c2.5-4.5 8-7.5 13.5-7.5 5 0 10.5 3 13 7.5zm29.5 104.5l-42.5-66-51.5 79 19.5 19 32-32h42.5zM1590.22 803h-4.01v-94c0-3.314-2.69-6-6.01-6h-2.01v-4c0-2.209-1.8-4-4.01-4h-24.05v-4c0-2.209-1.8-4-4.01-4a4.002 4.002 0 0 0-4.01 4v4h-24.06a4.002 4.002 0 0 0-4.01 4v4h-2.01a6.004 6.004 0 0 0-6.01 6v94h-4.01a4.008 4.008 0 0 0-4.01 4v4c0 2.209 1.8 4 4.01 4h88.21c2.22 0 4.01-1.791 4.01-4v-4c0-2.209-1.79-4-4.01-4zm-50.12-84c1.11 0 2.01.896 2.01 2v6h-8.02v-8h6.01zm-16.04 0h6.02v8h-8.02v-6c0-1.104.9-2 2-2zm0 20c-1.1 0-2-.895-2-2v-6h8.02v8h-6.02zm18.05 26c0 1.105-.9 2-2.01 2h-16.04c-1.1 0-2-.895-2-2v-16c0-1.104.9-2 2-2h16.04c1.11 0 2.01.896 2.01 2v16zm-2.01-26h-6.01v-8h8.02v6c0 1.105-.9 2-2.01 2zm28.07-20c1.11 0 2.01.896 2.01 2v6h-8.02v-8h6.01zm-16.04 0h6.02v8h-8.02v-6c0-1.104.89-2 2-2zm-2 18v-6h8.02v8h-6.02c-1.11 0-2-.895-2-2zm18.04 2h-6.01v-8h8.02v6c0 1.105-.9 2-2.01 2z" fill="#087F5B"/><path d="M338.5 671.41l97 148.5c6 9-1 20.5-12 20.5H133c-9.34 0-15.651-7.573-15.161-15.41H67.781c-8.156 0-12.375-9.562-7.03-15.75L86.062 780H75.938c-7.313 0-11.25-8.156-6.469-13.5L96.188 735H83.53c-6.187 0-9.28-6.187-5.625-10.406l37.969-41.063c2.813-3.093 8.156-3.093 10.969 0l37.969 41.063c3.656 4.219.562 10.406-5.625 10.406h-12.375l15.143 17.853L224 655.91c6-9.5 21.5-9.5 27.5 0l35.5 55.5 30 46.5c1 2 3.5 2.5 5.5 1.5l6.5-4.5c2-1 2.5-3.5 1.5-5.5l-34-53 16.5-25c5.5-9 20-9 25.5 0z" fill="#087F5B"/><path fill-rule="evenodd" clip-rule="evenodd" d="M1712.78 825c-8.15 0-12.37-9.562-7.03-15.75l25.31-29.25h-10.12c-7.31 0-11.25-8.156-6.47-13.5l26.72-31.5h-12.66c-6.19 0-9.28-6.187-5.62-10.406l37.97-41.063c2.81-3.093 8.15-3.093 10.96 0l20.52 22.188 20.52-22.188c2.81-3.093 8.15-3.093 10.96 0l37.97 41.063c3.66 4.219.57 10.406-5.62 10.406h-12.38l26.72 31.5c4.5 5.344.56 13.5-6.75 13.5h-10.12l25.31 29.25c5.34 6.188 1.12 15.75-7.03 15.75h-159.16zm79.03-90l.69.811.69-.811h-1.38z" fill="#087F5B"/><path d="M2033.97 809.25L2008.66 780h10.12c7.31 0 11.25-8.156 6.75-13.5l-26.72-31.5h12.38c6.19 0 9.28-6.187 5.62-10.406l-37.97-41.063c-2.81-3.093-8.15-3.093-10.96 0l-37.97 41.063c-3.66 4.219-.57 10.406 5.62 10.406h12.66l-26.72 31.5c-4.78 5.344-.84 13.5 6.47 13.5h10.12l-25.31 29.25c-5.34 6.188-1.12 15.75 7.03 15.75h107.16c8.15 0 12.37-9.562 7.03-15.75zM2239.66 780l25.31 29.25c5.34 6.188 1.12 15.75-7.03 15.75h-107.16c-8.15 0-12.37-9.562-7.03-15.75l25.31-29.25h-10.12c-7.31 0-11.25-8.156-6.47-13.5l26.72-31.5h-12.66c-6.19 0-9.28-6.187-5.62-10.406l37.97-41.063c2.81-3.093 8.15-3.093 10.96 0l37.97 41.063c3.66 4.219.57 10.406-5.62 10.406h-12.38l26.72 31.5c4.5 5.344.56 13.5-6.75 13.5h-10.12zM585.656 780l25.313 29.25c5.344 6.188 1.125 15.75-7.031 15.75H448.781c-8.156 0-12.375-9.562-7.031-15.75L467.063 780h-10.125c-7.313 0-11.25-8.156-6.469-13.5l26.719-31.5h-12.657c-6.187 0-9.281-6.187-5.625-10.406l37.969-41.063c2.813-3.093 8.156-3.093 10.969 0l18.516 20.025 18.515-20.025c2.813-3.093 8.156-3.093 10.969 0l37.969 41.063c3.656 4.219.562 10.406-5.625 10.406h-12.375l26.718 31.5c4.5 5.344.563 13.5-6.75 13.5h-10.125zM590.153 500.617c.985 1.705 2.194 2.956 3.525 4.136-2.098 2.835-2.5 6.639-.672 9.806 2.531 4.384 8.032 5.755 12.294 3.294 2.923-1.688 4.637-4.626 4.57-7.835l4.872-2.812c2.192-1.266 2.912-3.955 1.647-6.147l-.563-.975c-.281-.487-.075-1.255.412-1.536l1.949-1.125c.609-.352 1.255-.076 1.536.411l.563.975c2.531 4.384 1.09 9.763-3.294 12.294l-2.923 1.687c-.716 3.823-3.109 6.991-6.519 8.96-1.339.773-2.698 1.233-4.248 1.641l9.351 16.197c7.524 13.031 23.974 17.336 36.883 9.883l13.64-7.875a2.22 2.22 0 0 0 .823-3.073l-1.125-1.949 17.537-10.125a2.222 2.222 0 0 0 .824-3.074l-4.5-7.794c-.563-.974-1.978-1.456-3.074-.823l-13.031 7.523c-.179-5.092-1.633-10.423-4.586-15.538a34.284 34.284 0 0 0-11.164-11.742l13.031-7.523a2.222 2.222 0 0 0 .824-3.074l-4.5-7.794c-.563-.974-1.978-1.456-3.074-.823l-25.331 14.625-4.5-7.795a17.943 17.943 0 0 0-6.57-6.599l11.813-6.82c1.096-.633 2.511-.151 3.073.824a2.22 2.22 0 0 1-.823 3.073c-.974.563-1.386 2.099-.824 3.074l2.25 3.897c.633 1.096 2.1 1.386 3.074.823 5.724-3.304 7.539-10.848 3.555-16.342-3.37-4.712-10.177-5.815-15.292-2.862l-24.844 14.344c-8.525 4.922-11.511 16.063-6.589 24.588zm14.464-10.948a2.22 2.22 0 0 1-.824 3.073c-.974.563-2.441.273-3.073-.823-.563-.975-.151-2.511.823-3.074 1.096-.633 2.511-.151 3.074.824zM544.756 563.989c2.273-2.864 1.882-7.123-1.092-9.483-2.864-2.272-7.211-1.772-9.483 1.092-2.36 2.975-1.772 7.211 1.092 9.484 2.974 2.36 7.123 1.882 9.483-1.093zm24.74 2.756l-3.332 1.485-4.179-1.52c-6.158-2.194-13.157-.387-17.288 4.593-3.146 3.966-3.683 7.13-5.264 12.518-1.042 3.122-.743 6.591.697 9.528l.82 1.908c1.063 2.279 3.768 3.169 5.961 2.216 2.279-1.063 3.279-3.681 2.216-5.961l-.93-1.994c-.509-.943-.536-2.041-.254-3.074l1.148-3.936 5.409 6.984c1.788 2.497 4.736 3.759 7.81 3.505l12.318-.818a7.744 7.744 0 0 1 4.395.795l9.703 4.288c2.222 1.045 4.92.134 5.855-2.176 1.132-2.333.134-4.92-2.089-5.966l-11.727-5.355a9.693 9.693 0 0 0-4.395-.795l-9.529.697-6.005-7.817 2.287.738c2.199.848 4.68.662 6.873-.291l3.332-1.485c2.193-.953 3.082-3.658 2.129-5.85-1.063-2.28-3.791-3.367-5.961-2.217zm-4.593 37.464c.619 1.03 1.063 2.28 1.199 3.465l1.138 9.879c.186 2.481 2.499 4.316 4.957 3.933 2.481-.186 4.317-2.499 3.934-4.957l-1.255-11.767c-.137-1.185-.669-2.325-1.2-3.465l-2.609-4.404c-11.417.814-7.838.602-9.947.545l3.783 6.771zM679.828 621.027c-4.746-4.64-10.441-7.277-15.293-7.277-2.531 0-4.746.738-6.539 2.109-.211.211-.527.422-.738.633-4.114 4.113-10.758 12.024-10.758 19.406v10.547l-.949.95c-1.055 1.054-2.532 1.16-3.903.632-.632-.211-1.687-.422-2.32-.422-3.48 0-6.328 2.848-6.328 6.329 0 1.476.738 3.48 1.793 4.535 1.687 1.582 3.902 2.004 5.906 1.582-.422 2.004 0 4.324 1.582 5.906 1.055 1.055 3.059 1.898 4.535 1.898a6.392 6.392 0 0 0 6.434-6.433c0-.633-.211-1.688-.527-2.32-.528-1.372-.317-2.848.632-3.903l.95-.949h10.546c7.383 0 15.293-6.645 19.407-10.758.211-.211.527-.633.738-.949 3.902-5.168 1.793-14.449-5.168-21.516zm.844 18.879c-1.055 1.055-2.531 1.266-3.692 1.266-3.586 0-8.121-2.215-11.601-5.695-2.953-2.848-4.957-6.434-5.59-9.598-.527-2.531-.106-4.641 1.055-5.801 1.054-.949 2.531-1.266 3.691-1.266 3.586 0 8.121 2.215 11.707 5.801 5.59 5.696 7.066 12.762 4.43 15.293zM667.91 627.25c-.949 1.055-.527 3.059.949 4.641 1.582 1.582 3.692 2.004 4.746.949 1.055-1.055.633-3.164-.949-4.641-1.582-1.582-3.691-2.004-4.746-.949zM2333.61 617.518l-3.86 1.035a1.991 1.991 0 0 0-1.41 2.449l5.43 20.285-9.73.164c-4.75-6.383-13.04-9.591-21.2-7.406-8.15 2.184-13.73 9.11-14.65 17.013l-8.51 4.723-5.44-20.285a1.99 1.99 0 0 0-2.44-1.414l-3.87 1.035a1.992 1.992 0 0 0-1.41 2.45l13.46 50.228a1.996 1.996 0 0 0 2.45 1.414l3.86-1.035a1.992 1.992 0 0 0 1.41-2.45l-5.43-20.284 9.73-.164c4.75 6.383 13.04 9.59 21.2 7.406 8.15-2.185 13.73-9.111 14.65-17.013l8.51-4.723 5.44 20.285a1.991 1.991 0 0 0 2.44 1.414l3.87-1.035a1.992 1.992 0 0 0 1.41-2.45l-13.46-50.228a1.996 1.996 0 0 0-2.45-1.414zm-27.21 24.012c2.18-.299 4.32.002 6.25.816l-2 3.464a7.927 7.927 0 0 0-3.21-.416l-1.04-3.864zm-2.9.777l1.04 3.863a7.964 7.964 0 0 0-2.57 1.966l-3.47-2a11.928 11.928 0 0 1 5-3.829zm-6.5 6.427l3.47 2a7.878 7.878 0 0 0-.42 3.212l-3.86 1.035c-.3-2.18 0-4.316.81-6.247zm-.04 9.145l3.87-1.035a7.921 7.921 0 0 0 1.96 2.573l-2 3.464c-1.67-1.265-3-2.965-3.83-5.002zm12.68 7.318c-2.18.299-4.32-.002-6.25-.816l2-3.464c1.01.354 2.1.498 3.21.416l1.04 3.864zm-5.48-10.798a3.992 3.992 0 0 1 2.82-4.899 3.997 3.997 0 0 1 4.9 2.828 3.998 3.998 0 0 1-7.72 2.071zm8.38 10.021l-1.04-3.864c1-.483 1.87-1.153 2.57-1.966l3.47 2a11.922 11.922 0 0 1-5 3.83zm6.5-6.427l-3.47-2c.36-1.013.5-2.103.42-3.212l3.86-1.035c.3 2.18 0 4.315-.81 6.247zm-3.83-8.11a7.91 7.91 0 0 0-1.96-2.573l2-3.464c1.67 1.265 3 2.964 3.83 5.002l-3.87 1.035zM2043.62 511l-3.46-2a1.996 1.996 0 0 0-2.73.732l-10.5 18.187-7-6.764c1.16-7.872-2.44-16.007-9.75-20.227-7.31-4.22-16.16-3.269-22.4 1.667l-9.35-2.676 10.5-18.187c.55-.957.22-2.18-.73-2.732l-3.47-2a1.998 1.998 0 0 0-2.73.732l-26 45.033c-.55.957-.22 2.18.73 2.732l3.47 2c.95.553 2.18.225 2.73-.732l10.5-18.186 6.99 6.763c-1.15 7.872 2.45 16.007 9.76 20.227 7.31 4.22 16.15 3.27 22.39-1.666l9.36 2.676-10.5 18.186a1.99 1.99 0 0 0 .73 2.732l3.46 2c.96.553 2.18.225 2.73-.732l26-45.033a1.99 1.99 0 0 0-.73-2.732zm-36.22-2.263a11.894 11.894 0 0 1 3.84 4.994l-3.86 1.036a8.044 8.044 0 0 0-1.98-2.565l2-3.465zm-2.6-1.5l-2 3.465a7.945 7.945 0 0 0-3.21-.43l-1.03-3.864c2.07-.286 4.21-.024 6.24.829zm-9.14-.052l1.03 3.863a8.04 8.04 0 0 0-2.56 1.977l-3.46-2a11.852 11.852 0 0 1 4.99-3.84zm-6.49 6.438l3.46 2a7.88 7.88 0 0 0-.43 3.21l-3.86 1.036a11.76 11.76 0 0 1 .83-6.246zm3.78 14.137a11.882 11.882 0 0 1-3.84-4.994l3.87-1.035a7.884 7.884 0 0 0 1.97 2.565l-2 3.464zm3.76-11.511a4.005 4.005 0 0 1 5.47-1.464 3.996 3.996 0 0 1 1.46 5.464 3.996 3.996 0 0 1-5.46 1.464 4 4 0 0 1-1.47-5.464zm-1.16 13.011l2-3.464c1.05.366 2.14.509 3.21.429l1.04 3.864c-2.08.286-4.22.024-6.25-.829zm9.14.053l-1.03-3.864a7.918 7.918 0 0 0 2.56-1.977l3.47 2a11.891 11.891 0 0 1-5 3.841zm3.03-8.439c.37-1.05.51-2.14.43-3.21l3.87-1.035c.28 2.076.02 4.217-.83 6.245l-3.47-2zM2175.5 550.706c-31.8 0-61.4-4.67-86.5-12.612.49 4.347 1.35 8.574 2.45 12.705 24.79 7.156 53.37 11.201 84.05 11.201s59.26-4.045 84.05-11.201c1.1-4.131 1.96-8.358 2.45-12.705-25.1 7.942-54.71 12.612-86.5 12.612zm-22.48-28.235c15.52 0 28.1-12.642 28.1-28.236 0-15.594-12.58-28.235-28.1-28.235-15.52 0-28.1 12.641-28.1 28.235s12.58 28.236 28.1 28.236zm0-36.706c4.66 0 8.43 3.792 8.43 8.47 0 4.678-3.77 8.471-8.43 8.471-4.65 0-8.43-3.793-8.43-8.471s3.78-8.47 8.43-8.47z" fill="#087F5B"/><path d="M1205.25 756.499c3.66 0 6.75-2.953 6.75-6.75 0-3.656-3.09-6.75-6.75-6.75-3.8 0-6.75 3.094-6.75 6.75 0 3.797 2.95 6.75 6.75 6.75zm-22.36 31.219l-2.11 4.781h-9.28c-2.53 0-4.5 2.11-4.5 4.5 0 2.531 1.97 4.5 4.5 4.5h10.83c2.67 0 5.2-1.547 6.19-4.078l1.26-2.812-1.55-.844c-2.39-1.547-4.21-3.656-5.34-6.047zm38.11-13.219h-6.33l-3.65-7.453c-1.69-3.516-4.93-6.187-8.58-7.172l-9.99-2.953c-4.08-.984-8.15 0-11.39 2.391l-5.62 4.359c-1.97 1.406-2.39 4.359-.85 6.328 1.55 1.969 4.36 2.25 6.33.703l5.63-4.218c.98-.844 2.39-1.125 3.51-.844l2.11.562-5.34 12.375c-1.69 4.078-.14 9 3.65 11.25l11.96 7.032-3.8 12.375c-.7 2.39.56 4.921 2.95 5.625.43.14.85.14 1.41.14 1.83 0 3.66-1.125 4.22-3.094l4.5-14.203c.84-2.953-.42-6.047-3.1-7.593l-8.57-5.204 4.36-10.968 2.81 5.906c1.12 2.25 3.51 3.656 6.19 3.656h7.59c2.39 0 4.5-1.969 4.5-4.5 0-2.39-2.11-4.5-4.5-4.5zM2083.39 715h-7.22c-2 0-3.61 1.615-3.61 3.607v37.875l-17.05-4.256c-5.3-13.337-18.27-22.798-33.51-22.798-15.24 0-28.21 9.461-33.51 22.798l-17.05 4.256v-37.875a3.605 3.605 0 0 0-3.61-3.607h-7.22a3.611 3.611 0 0 0-3.61 3.607v93.786a3.611 3.611 0 0 0 3.61 3.607h7.22c2 0 3.61-1.615 3.61-3.607v-37.875l17.05 4.256c5.3 13.337 18.27 22.797 33.51 22.797 15.24 0 28.21-9.46 33.51-22.797l17.05-4.256v37.875a3.605 3.605 0 0 0 3.61 3.607h7.22c1.99 0 3.61-1.615 3.61-3.607v-93.786a3.611 3.611 0 0 0-3.61-3.607zm-58.68 29.13c3.94.497 7.52 2.018 10.51 4.337l-5.1 5.101a14.47 14.47 0 0 0-5.41-2.224v-7.214zm-5.42 0v7.214a14.47 14.47 0 0 0-5.41 2.224l-5.1-5.101a21.435 21.435 0 0 1 10.51-4.337zm-14.34 8.162l5.1 5.102a14.383 14.383 0 0 0-2.22 5.401h-7.22a21.329 21.329 0 0 1 4.34-10.503zm-4.34 15.913h7.22a14.383 14.383 0 0 0 2.22 5.401l-5.1 5.101a21.321 21.321 0 0 1-4.34-10.502zm18.68 18.665a21.435 21.435 0 0 1-10.51-4.337l5.1-5.101a14.47 14.47 0 0 0 5.41 2.224v7.214zm-4.51-21.37a7.215 7.215 0 0 1 7.22-7.214 7.215 7.215 0 1 1 0 14.428c-3.99 0-7.22-3.23-7.22-7.214zm9.93 21.37v-7.214a14.47 14.47 0 0 0 5.41-2.224l5.1 5.101a21.435 21.435 0 0 1-10.51 4.337zm14.34-8.163l-5.11-5.101a14.239 14.239 0 0 0 2.23-5.401h7.22a21.321 21.321 0 0 1-4.34 10.502zm-2.88-15.912a14.239 14.239 0 0 0-2.23-5.401l5.11-5.102a21.329 21.329 0 0 1 4.34 10.503h-7.22zM720.849 794.393l-.798-2.284 3.037-10.393c.473-1.62-1.006-3.078-2.688-2.837-1.547.281-3.116 1.141-4.416 2.08l-5.32-14.887c-1.292-3.6-5.211-7.236-8.951-8.475l-42.924-12.541c-6.615-1.933-13.456 1.929-15.349 8.408l-3.431 11.743c-2.498 1.028-4.384 2.968-5.172 5.668l-1.262 4.319 1.079.316c4.725 1.38 9.744-1.256 11.163-6.115l4.102-14.038c.631-2.16 2.572-3.79 4.834-4.009-.333.636-.49 1.176-.648 1.716l-11.989 41.034a2.222 2.222 0 0 0 1.528 2.791l8.639 2.524c1.08.315 2.436-.314 2.791-1.529l4.417-15.118c.82 1.705 2.029 3.084 3.452 4.232l-1.026 3.509a2.221 2.221 0 0 0 1.529 2.791c1.08.315 2.436-.314 2.791-1.529l.67-2.294c1.176.489 1.502.878 4.32 1.262l-.671 2.294a2.221 2.221 0 0 0 1.529 2.791c1.08.315 2.436-.314 2.791-1.529l1.025-3.509c1.682-.241 3.443-.752 5.013-1.612l-4.378 14.983c-.355 1.214.449 2.475 1.529 2.79l8.639 2.524a2.22 2.22 0 0 0 2.79-1.528l6.941-23.757 3.058 5.581-1.657 5.67c-.433 1.484-.39 3.841.105 5.158l3.224 10.025c.472 1.896 2.546 3.821 4.436 4.373 2.97.867 6.261-.369 7.668-3.181l7.269-13.845c.625-1.136.71-2.43.311-3.572zm-30.392-24.848l-4.011 2.197c-3.798 1.967-8.321 2.404-12.37 1.221l-.135-.04c-4.05-1.183-7.626-3.986-9.767-7.688l-2.198-4.011c-1.394-2.752 1.308-5.479 4.682-4.493l22.272 6.508c3.375.985 4.183 4.738 1.527 6.306zm19.605 32.685a2.221 2.221 0 0 1-1.529-2.791c.316-1.08 1.576-1.884 2.791-1.529 1.08.316 1.844 1.711 1.529 2.791-.355 1.215-1.711 1.844-2.791 1.529zM510.067 758.475c-2.176-1.292-5.365-.407-6.546 1.994-3.712 7.983-3.962 17.318.152 25.603l28.661-14.23-22.267-13.367zm43.801-10.722l-5.374 2.668a7.976 7.976 0 0 0-3.608 10.723l3.558 7.165-42.993 21.346c2.835 5.71 7.967 9.582 14 11.331-3.418 2.954-4.494 7.814-2.437 11.957 2.501 5.038 8.365 7.011 13.403 4.509 4.927-2.445 7.012-8.365 4.51-13.403-.445-.896-1.169-1.793-1.949-2.521 2.796-.552 5.538-1.494 8.225-2.828a32.385 32.385 0 0 0 7.113-4.788c.109 1.063.497 2.126.942 3.021 2.501 5.039 8.366 7.012 13.404 4.51 4.926-2.446 7.011-8.365 4.51-13.404-2.057-4.142-6.691-6.168-11.11-5.23 2.364-5.919 2.382-12.347-.453-18.057l-3.557-7.166 5.374-2.668c.896-.445 1.402-1.673.902-2.681l-1.779-3.582c-.445-.896-1.785-1.347-2.681-.902zm-26.119 64.325c-2.015 1.001-4.361.212-5.361-1.804-.945-1.903-.212-4.361 1.804-5.361 1.903-.945 4.416-.1 5.361 1.804 1.001 2.015.099 4.416-1.804 5.361zm34.049-21.37c1 2.015.099 4.416-1.804 5.361-2.016 1.001-4.361.212-5.362-1.804-.945-1.903-.211-4.361 1.804-5.361 1.903-.945 4.417-.1 5.362 1.804z" fill="#fff"/><path d="M1231.07 770.501l7.43 7.425 2.12-2.122-7.43-7.424-2.12 2.121zm-3.18 3.182l7.42 7.425 2.13-2.122-7.43-7.424-2.12 2.121zm15.91-1.061l-7.42-7.424a.761.761 0 0 0-1.07 0l-1.06 1.061a.754.754 0 0 0 0 1.06l7.43 7.425c.29.293.77.293 1.06 0l1.06-1.061a.756.756 0 0 0 0-1.061zm-24.92 9.016a3 3 0 0 0 0 4.24l4.24 4.245a3.004 3.004 0 0 0 4.24.002l7.43-7.425-8.49-8.485-7.42 7.423zM592.312 683.5l-7.062 7.062c-.25.125-.938-.562-.813-.812 1.188-1.313 6.563-7.375 6.688-7.5.875-1.188-1.188-3.25-2.375-2.375-.125.125-6.188 5.5-7.5 6.687-.25.125-.938-.562-.813-.812l7.063-7.063c.937-1.25-1.188-3.312-2.313-2.437-.312.187-5.562 3.875-7.312 5.625-2.563 2.625-3.063 5.875-1.75 8.687l-12.563 11.313c-.75.625-.812 1.75-.062 2.437l3.187 3.188c.688.687 1.813.687 2.438-.063l11.312-12.562c2.813 1.312 6.063.812 8.688-1.813 1.75-1.687 5.437-6.937 5.625-7.25.875-1.125-1.25-3.25-2.438-2.312zM150.952 272.955l-2.812 16.341c-.501 2.954 2.607 5.173 5.202 3.782l14.656-7.717 14.656 7.717c2.609 1.374 5.703-.828 5.202-3.782l-2.795-16.341 11.857-11.562c2.127-2.077.938-5.702-1.999-6.125l-16.374-2.39-7.329-14.874c-1.311-2.656-5.108-2.688-6.436 0l-7.329 14.874-16.374 2.39c-2.937.423-4.126 4.048-1.985 6.125l11.86 11.562zM2170.95 291.955l-2.81 16.341c-.5 2.954 2.61 5.173 5.2 3.782l14.66-7.717 14.65 7.717c2.61 1.374 5.71-.828 5.21-3.782l-2.8-16.341 11.86-11.562c2.12-2.077.94-5.702-2-6.125l-16.38-2.39-7.32-14.874c-1.32-2.656-5.11-2.688-6.44 0l-7.33 14.874-16.37 2.39c-2.94.423-4.13 4.048-1.99 6.125l11.86 11.562zM353.476 565.229l-1.406 8.171c-.25 1.477 1.304 2.586 2.601 1.891l7.328-3.859 7.328 3.859c1.305.687 2.851-.414 2.601-1.891l-1.398-8.171 5.929-5.781c1.063-1.038.469-2.851-1-3.062l-8.187-1.195-3.664-7.437c-.656-1.328-2.554-1.344-3.218 0l-3.664 7.437-8.187 1.195c-1.469.211-2.063 2.024-.993 3.062l5.93 5.781zM118.476 578.477l-1.406 8.171c-.25 1.477 1.304 2.587 2.601 1.891l7.328-3.858 7.328 3.858c1.305.687 2.851-.414 2.601-1.891l-1.398-8.171 5.929-5.78c1.063-1.039.469-2.852-1-3.063l-8.187-1.195-3.664-7.437c-.656-1.328-2.554-1.344-3.218 0l-3.664 7.437-8.187 1.195c-1.469.211-2.063 2.024-.993 3.063l5.93 5.78zM2341.48 471.477l-1.41 8.171c-.25 1.477 1.3 2.587 2.6 1.891l7.33-3.858 7.33 3.858c1.3.687 2.85-.414 2.6-1.891l-1.4-8.171 5.93-5.78c1.06-1.039.47-2.852-1-3.063l-8.19-1.195-3.66-7.437c-.66-1.328-2.56-1.344-3.22 0l-3.66 7.437-8.19 1.195c-1.47.211-2.06 2.024-.99 3.063l5.93 5.78zM2549.48 542.477l-1.41 8.171c-.25 1.477 1.3 2.587 2.6 1.891l7.33-3.858 7.33 3.858c1.3.687 2.85-.414 2.6-1.891l-1.4-8.171 5.93-5.78c1.06-1.039.47-2.852-1-3.063l-8.19-1.195-3.66-7.437c-.66-1.328-2.56-1.344-3.22 0l-3.66 7.437-8.19 1.195c-1.47.211-2.06 2.024-.99 3.063l5.93 5.78zM850.476 193.477l-1.406 8.171c-.25 1.477 1.304 2.587 2.601 1.891l7.328-3.858 7.328 3.858c1.305.687 2.851-.414 2.601-1.891l-1.398-8.171 5.929-5.78c1.063-1.039.469-2.852-1-3.063l-8.187-1.195-3.664-7.437c-.656-1.328-2.554-1.344-3.218 0l-3.664 7.437-8.187 1.195c-1.469.211-2.063 2.024-.993 3.063l5.93 5.78zM608.476 186.477l-1.406 8.171c-.25 1.477 1.304 2.587 2.601 1.891l7.328-3.858 7.328 3.858c1.305.687 2.851-.414 2.601-1.891l-1.398-8.171 5.929-5.78c1.063-1.039.469-2.852-1-3.063l-8.187-1.195-3.664-7.437c-.656-1.328-2.554-1.344-3.218 0l-3.664 7.437-8.187 1.195c-1.469.211-2.063 2.024-.993 3.063l5.93 5.78zM483.476 264.477l-1.406 8.171c-.25 1.477 1.304 2.587 2.601 1.891l7.328-3.858 7.328 3.858c1.305.687 2.851-.414 2.601-1.891l-1.398-8.171 5.929-5.78c1.063-1.039.469-2.852-1-3.063l-8.187-1.195-3.664-7.437c-.656-1.328-2.554-1.344-3.218 0l-3.664 7.437-8.187 1.195c-1.469.211-2.063 2.024-.993 3.063l5.93 5.78zM2019.48 303.477l-1.41 8.171c-.25 1.477 1.3 2.587 2.6 1.891l7.33-3.858 7.33 3.858c1.3.687 2.85-.414 2.6-1.891l-1.4-8.171 5.93-5.78c1.06-1.039.47-2.852-1-3.063l-8.19-1.195-3.66-7.437c-.66-1.328-2.56-1.344-3.22 0l-3.66 7.437-8.19 1.195c-1.47.211-2.06 2.024-.99 3.063l5.93 5.78zM2482.48 126.477l-1.41 8.171c-.25 1.477 1.3 2.587 2.6 1.891l7.33-3.858 7.33 3.858c1.3.687 2.85-.414 2.6-1.891l-1.4-8.171 5.93-5.78c1.06-1.039.47-2.852-1-3.063l-8.19-1.195-3.66-7.437c-.66-1.328-2.56-1.344-3.22 0l-3.66 7.437-8.19 1.195c-1.47.211-2.06 2.024-.99 3.063l5.93 5.78zM646.704 356c.731 2.672 1.249 5.431 1.249 8.334 0 .568-.056 1.123-.086 1.685-9.728 4.399-20.466 6.99-31.867 6.99s-22.139-2.591-31.867-6.99c-.03-.562-.086-1.117-.086-1.685 0-2.903.518-5.662 1.249-8.334C567.195 360.096 555 367.68 555 376.383 555 389.426 582.311 400 616 400s61-10.574 61-23.617c0-8.703-12.195-16.287-30.296-20.383zm-71.371 25.444c-2.807 0-5.083-2.266-5.083-5.061s2.276-5.06 5.083-5.06c2.808 0 5.084 2.265 5.084 5.06 0 2.795-2.276 5.061-5.084 5.061zM616 391.565c-2.807 0-5.083-2.265-5.083-5.06 0-2.795 2.276-5.061 5.083-5.061 2.807 0 5.083 2.266 5.083 5.061s-2.276 5.06-5.083 5.06zm40.667-10.121c-2.808 0-5.084-2.266-5.084-5.061s2.276-5.06 5.084-5.06c2.807 0 5.083 2.265 5.083 5.06 0 2.795-2.276 5.061-5.083 5.061z" fill="#fff"/></g><defs><clipPath id="clip0"><path fill="#fff" d="M0 0h2667v815H0z"/></clipPath></defs></svg>